<svg width="21" height="23" viewBox="0 0 21 23" fill="none" xmlns="http://www.w3.org/2000/svg">
<g clip-path="url(#clip0_6389_857)">
<path d="M16.6141 11.8043C16.6141 12.2872 16.6999 12.74 16.8713 13.1625C17.0427 13.5851 17.2808 13.9574 17.5856 14.2793C17.8903 14.6013 18.2427 14.8528 18.6427 15.0339C19.0427 15.215 19.4713 15.3055 19.9284 15.3055V18.1125H0.0712891V15.3055C0.528432 15.3055 0.957003 15.215 1.357 15.0339C1.757 14.8528 2.10938 14.6013 2.41415 14.2793C2.71891 13.9574 2.957 13.5851 3.12843 13.1625C3.29986 12.74 3.38557 12.2872 3.38557 11.8043V7.60888C3.38557 6.64303 3.557 5.73754 3.89986 4.89242C4.24272 4.0473 4.71891 3.30279 5.32843 2.65888C5.93796 2.01498 6.63319 1.51193 7.41415 1.14974C8.1951 0.787543 9.05224 0.606445 9.98557 0.606445C10.9189 0.606445 11.7761 0.787543 12.557 1.14974C13.338 1.51193 14.0427 2.01498 14.6713 2.65888C15.2999 3.30279 15.7761 4.0473 16.0999 4.89242C16.4237 5.73754 16.5951 6.64303 16.6141 7.60888V11.8043ZM9.98557 21.5836C9.37605 21.5836 8.84272 21.3824 8.38557 20.9799C7.92843 20.5775 7.61415 20.0845 7.44272 19.501H12.557C12.4046 20.1046 12.0999 20.5976 11.6427 20.9799C11.1856 21.3622 10.6332 21.5635 9.98557 21.5836Z" fill="white"/>
</g>
<defs>
<clipPath id="clip0_6389_857">
<rect width="20" height="22" fill="white" transform="translate(0.5 0.576172)"/>
</clipPath>
</defs>
</svg>
