<svg width="21" height="24" viewBox="0 0 21 24" fill="none" xmlns="http://www.w3.org/2000/svg">
<g clip-path="url(#clip0_6389_889)">
<path d="M11.1562 12C11.55 12 11.8125 12.24 11.8125 12.6C11.8125 12.9 11.55 13.14 11.2219 13.2H11.1562H7.21875C4.26562 13.2 1.77187 15.18 1.37812 17.82V18H8.53125C8.85938 18 9.12187 18.24 9.1875 18.54V18.6C9.1875 18.9 8.925 19.14 8.59688 19.2H8.53125H0.65625C0.2625 19.2 0 18.96 0 18.6C0 15 3.15 12.12 7.02187 12H7.21875H11.1562ZM17.2594 9.78C17.5219 9.54 17.9156 9.54 18.1781 9.78L20.8031 12.18C21.0656 12.42 21.0656 12.78 20.8031 13.02L14.8969 18.42C14.8313 18.48 14.7 18.54 14.5688 18.6L11.2875 19.2C10.8281 19.26 10.4344 18.9 10.5 18.48L11.1562 15.48C11.1562 15.36 11.2219 15.24 11.3531 15.18L17.2594 9.78ZM17.7188 11.04L12.4031 15.9L12.0094 17.82L14.1094 17.46L19.425 12.6L17.7188 11.04ZM9.1875 0C12.075 0 14.4375 2.16 14.4375 4.8C14.4375 7.44 12.075 9.6 9.1875 9.6C6.3 9.6 3.9375 7.44 3.9375 4.8C3.9375 2.16 6.3 0 9.1875 0ZM9.1875 1.2C7.02188 1.2 5.25 2.82 5.25 4.8C5.25 6.78 7.02188 8.4 9.1875 8.4C11.3531 8.4 13.125 6.78 13.125 4.8C13.125 2.82 11.3531 1.2 9.1875 1.2Z" fill="white"/>
</g>
<defs>
<clipPath id="clip0_6389_889">
<rect width="21" height="24" fill="white"/>
</clipPath>
</defs>
</svg>
