<svg width="22" height="21" viewBox="0 0 22 21" fill="none" xmlns="http://www.w3.org/2000/svg">
<path d="M18.6016 1.39355C18.9497 1.39355 19.2835 1.53184 19.5296 1.77798C19.7758 2.02412 19.9141 2.35796 19.9141 2.70605V13.2061C19.9141 13.5542 19.7758 13.888 19.5296 14.1341C19.2835 14.3803 18.9497 14.5186 18.6016 14.5186H6.01994C5.3238 14.5187 4.65623 14.7954 4.16406 15.2877L1.53906 17.9127V2.70605C1.53906 2.35796 1.67734 2.02412 1.92348 1.77798C2.16963 1.53184 2.50347 1.39355 2.85156 1.39355H18.6016ZM2.85156 0.0810547C2.15537 0.0810547 1.48769 0.357616 0.995407 0.849899C0.503124 1.34218 0.226563 2.00986 0.226562 2.70605L0.226563 19.4969C0.22659 19.6267 0.26514 19.7536 0.337334 19.8616C0.409528 19.9695 0.512119 20.0536 0.632124 20.1032C0.752129 20.1528 0.884153 20.1657 1.01148 20.1402C1.13882 20.1148 1.25573 20.0521 1.34744 19.9602L5.092 16.2156C5.33808 15.9695 5.67187 15.8311 6.01994 15.8311H18.6016C19.2978 15.8311 19.9654 15.5545 20.4577 15.0622C20.95 14.5699 21.2266 13.9022 21.2266 13.2061V2.70605C21.2266 2.00986 20.95 1.34218 20.4577 0.849899C19.9654 0.357616 19.2978 0.0810547 18.6016 0.0810547L2.85156 0.0810547Z" fill="white"/>
<path d="M6.78906 7.95605C6.78906 8.30415 6.65078 8.63799 6.40464 8.88413C6.1585 9.13027 5.82466 9.26855 5.47656 9.26855C5.12847 9.26855 4.79463 9.13027 4.54848 8.88413C4.30234 8.63799 4.16406 8.30415 4.16406 7.95605C4.16406 7.60796 4.30234 7.27412 4.54848 7.02798C4.79463 6.78184 5.12847 6.64355 5.47656 6.64355C5.82466 6.64355 6.1585 6.78184 6.40464 7.02798C6.65078 7.27412 6.78906 7.60796 6.78906 7.95605ZM12.0391 7.95605C12.0391 8.30415 11.9008 8.63799 11.6546 8.88413C11.4085 9.13027 11.0747 9.26855 10.7266 9.26855C10.3785 9.26855 10.0446 9.13027 9.79849 8.88413C9.55234 8.63799 9.41406 8.30415 9.41406 7.95605C9.41406 7.60796 9.55234 7.27412 9.79849 7.02798C10.0446 6.78184 10.3785 6.64355 10.7266 6.64355C11.0747 6.64355 11.4085 6.78184 11.6546 7.02798C11.9008 7.27412 12.0391 7.60796 12.0391 7.95605ZM17.2891 7.95605C17.2891 8.30415 17.1508 8.63799 16.9046 8.88413C16.6585 9.13027 16.3247 9.26855 15.9766 9.26855C15.6285 9.26855 15.2946 9.13027 15.0485 8.88413C14.8023 8.63799 14.6641 8.30415 14.6641 7.95605C14.6641 7.60796 14.8023 7.27412 15.0485 7.02798C15.2946 6.78184 15.6285 6.64355 15.9766 6.64355C16.3247 6.64355 16.6585 6.78184 16.9046 7.02798C17.1508 7.27412 17.2891 7.60796 17.2891 7.95605Z" fill="white"/>
</svg>
