<svg width="19" height="21" viewBox="0 0 19 21" fill="none" xmlns="http://www.w3.org/2000/svg">
<path fill-rule="evenodd" clip-rule="evenodd" d="M9.72656 4.85938C10.1408 4.85938 10.4766 5.19516 10.4766 5.60938V9.35938C10.4766 9.77359 10.1408 10.1094 9.72656 10.1094C9.31235 10.1094 8.97656 9.77359 8.97656 9.35938V5.60938C8.97656 5.19516 9.31235 4.85938 9.72656 4.85938Z" fill="white"/>
<path fill-rule="evenodd" clip-rule="evenodd" d="M9.72656 0.734375C10.3479 0.734375 10.8516 1.23805 10.8516 1.85938V2.60938C10.8516 3.2307 10.3479 3.73438 9.72656 3.73438C9.10524 3.73438 8.60156 3.2307 8.60156 2.60938V1.85938C8.60156 1.23805 9.10524 0.734375 9.72656 0.734375Z" fill="white"/>
<path fill-rule="evenodd" clip-rule="evenodd" d="M2.55607 3.31388C2.99541 2.87454 3.70772 2.87454 4.14706 3.31388L4.70956 3.87638C5.1489 4.31572 5.1489 5.02803 4.70956 5.46737C4.27022 5.90671 3.55791 5.90671 3.11857 5.46737L2.55607 4.90487C2.11673 4.46553 2.11673 3.75322 2.55607 3.31388Z" fill="white"/>
<path fill-rule="evenodd" clip-rule="evenodd" d="M9.72656 10.4844C9.31235 10.4844 8.97656 10.8202 8.97656 11.2344C8.97656 11.6486 9.31235 11.9844 9.72656 11.9844C10.1408 11.9844 10.4766 11.6486 10.4766 11.2344C10.4766 10.8202 10.1408 10.4844 9.72656 10.4844ZM7.47656 11.2344C7.47656 9.99173 8.48392 8.98438 9.72656 8.98438C10.9692 8.98438 11.9766 9.99173 11.9766 11.2344C11.9766 12.477 10.9692 13.4844 9.72656 13.4844C8.48392 13.4844 7.47656 12.477 7.47656 11.2344Z" fill="white"/>
<path fill-rule="evenodd" clip-rule="evenodd" d="M4.72643 3.75115C6.20648 2.76222 7.94653 2.23438 9.72657 2.23438C12.1135 2.23438 14.4027 3.18259 16.0905 4.87041C17.7784 6.55824 18.7266 8.84743 18.7266 11.2344C18.7266 13.0144 18.1987 14.7545 17.2098 16.2345C16.2209 17.7146 14.8153 18.8681 13.1707 19.5493C11.5262 20.2305 9.71658 20.4087 7.97075 20.0614C6.22492 19.7142 4.62128 18.857 3.36261 17.5983C2.10393 16.3397 1.24677 14.736 0.899499 12.9902C0.552232 11.2444 0.730462 9.43476 1.41165 7.79022C2.09284 6.14569 3.24639 4.74008 4.72643 3.75115ZM9.72657 3.73438C8.24321 3.73438 6.79316 4.17424 5.55979 4.99835C4.32642 5.82246 3.36513 6.9938 2.79747 8.36425C2.22981 9.7347 2.08129 11.2427 2.37068 12.6976C2.66007 14.1524 3.37437 15.4888 4.42327 16.5377C5.47216 17.5866 6.80853 18.3009 8.26339 18.5903C9.71825 18.8797 11.2262 18.7311 12.5967 18.1635C13.9671 17.5958 15.1385 16.6345 15.9626 15.4012C16.7867 14.1678 17.2266 12.7177 17.2266 11.2344C17.2266 9.24525 16.4364 7.3376 15.0299 5.93107C13.6233 4.52455 11.7157 3.73438 9.72657 3.73438Z" fill="white"/>
</svg>
