<svg width="33" height="33" viewBox="0 0 33 33" fill="none" xmlns="http://www.w3.org/2000/svg">
<g clip-path="url(#clip0_6389_873)">
<path fill-rule="evenodd" clip-rule="evenodd" d="M11.1856 6.11787C10.9287 6.11771 10.6762 6.18519 10.4536 6.31352C10.231 6.44185 10.0461 6.62652 9.9175 6.84896L4.92379 15.7716C4.79517 15.9941 4.72738 16.2464 4.72721 16.5034C4.72705 16.7603 4.79452 17.0128 4.92284 17.2354L9.92789 25.9171C10.0562 26.1396 10.2409 26.3245 10.4633 26.4531C10.6858 26.5818 10.9381 26.6495 11.1951 26.6497L21.419 26.7993C21.676 26.7995 21.9284 26.732 22.151 26.6036C22.3736 26.4753 22.5585 26.2906 22.6871 26.0682L27.6809 17.1455C27.8095 16.9231 27.8773 16.6707 27.8774 16.4138C27.8776 16.1568 27.8101 15.9044 27.6818 15.6818L22.6768 7.00012C22.5484 6.77752 22.3638 6.59263 22.1413 6.46402C21.9189 6.33541 21.6665 6.26762 21.4096 6.26746L11.1856 6.11787Z" fill="white"/>
</g>
<defs>
<clipPath id="clip0_6389_873">
<rect width="23.4205" height="23.4205" fill="white" transform="translate(0.308594 12.1621) rotate(-29.9638)"/>
</clipPath>
</defs>
</svg>
