<svg width="33" height="26" viewBox="0 0 33 26" fill="none" xmlns="http://www.w3.org/2000/svg">
<path d="M15.4688 15.0312V24.375H5.92969C5.72456 24.375 5.52783 24.3108 5.38278 24.1965C5.23774 24.0822 5.15625 23.9272 5.15625 23.7656V2.23438C5.15625 2.07276 5.23774 1.91776 5.38278 1.80348C5.52783 1.6892 5.72456 1.625 5.92969 1.625H27.0703C27.2754 1.625 27.4722 1.6892 27.6172 1.80348C27.7623 1.91776 27.8438 2.07276 27.8438 2.23438V14.625H15.9844C15.8476 14.625 15.7165 14.6678 15.6198 14.744C15.5231 14.8202 15.4688 14.9235 15.4688 15.0312Z" fill="white"/>
<path d="M17.5313 23.8827V16.4529C17.5313 16.3991 17.5584 16.3474 17.6068 16.3093C17.6551 16.2712 17.7207 16.2498 17.7891 16.2498H27.2192C27.2447 16.2498 27.2696 16.2557 27.2908 16.2668C27.312 16.278 27.3285 16.2938 27.3383 16.3123C27.3481 16.3308 27.3507 16.3512 27.3458 16.3709C27.3409 16.3906 27.3287 16.4087 27.3107 16.423L17.751 23.9548C17.733 23.969 17.71 23.9786 17.685 23.9825C17.66 23.9863 17.6341 23.9843 17.6106 23.9766C17.5871 23.9689 17.567 23.9558 17.5529 23.9391C17.5388 23.9224 17.5312 23.9028 17.5313 23.8827Z" fill="white"/>
</svg>
