<svg width="21" height="20" viewBox="0 0 21 20" fill="none" xmlns="http://www.w3.org/2000/svg">
<g clip-path="url(#clip0_6389_878)">
<path d="M1.5 18.1818H13.5V16.3636H1.5V18.1818ZM1.5 10.9091H13.5V9.09091H1.5V10.9091ZM19.875 17.2727C19.875 16.8939 19.7656 16.572 19.5469 16.3068C19.3281 16.0417 19.0625 15.9091 18.75 15.9091C18.4375 15.9091 18.1719 16.0417 17.9531 16.3068C17.7344 16.572 17.625 16.8939 17.625 17.2727C17.625 17.6515 17.7344 17.9735 17.9531 18.2386C18.1719 18.5038 18.4375 18.6364 18.75 18.6364C19.0625 18.6364 19.3281 18.5038 19.5469 18.2386C19.7656 17.9735 19.875 17.6515 19.875 17.2727ZM1.5 3.63636H13.5V1.81818H1.5V3.63636ZM19.875 10C19.875 9.62121 19.7656 9.29924 19.5469 9.03409C19.3281 8.76894 19.0625 8.63636 18.75 8.63636C18.4375 8.63636 18.1719 8.76894 17.9531 9.03409C17.7344 9.29924 17.625 9.62121 17.625 10C17.625 10.3788 17.7344 10.7008 17.9531 10.9659C18.1719 11.2311 18.4375 11.3636 18.75 11.3636C19.0625 11.3636 19.3281 11.2311 19.5469 10.9659C19.7656 10.7008 19.875 10.3788 19.875 10ZM19.875 2.72727C19.875 2.34848 19.7656 2.02652 19.5469 1.76136C19.3281 1.49621 19.0625 1.36364 18.75 1.36364C18.4375 1.36364 18.1719 1.49621 17.9531 1.76136C17.7344 2.02652 17.625 2.34848 17.625 2.72727C17.625 3.10606 17.7344 3.42803 17.9531 3.69318C18.1719 3.95833 18.4375 4.09091 18.75 4.09091C19.0625 4.09091 19.3281 3.95833 19.5469 3.69318C19.7656 3.42803 19.875 3.10606 19.875 2.72727ZM21 14.5455V20H0V14.5455H21ZM21 7.27273V12.7273H0V7.27273H21ZM21 0V5.45455H0V0H21Z" fill="white"/>
</g>
<defs>
<clipPath id="clip0_6389_878">
<rect width="21" height="20" fill="white"/>
</clipPath>
</defs>
</svg>
