<svg width="195" height="17" viewBox="0 0 195 17" fill="none" xmlns="http://www.w3.org/2000/svg">
<path d="M3.24689 15.9504H0.434393L5.55513 1.40492H8.80797L13.9358 15.9504H11.1233L7.23837 4.38788H7.12473L3.24689 15.9504ZM3.33922 10.2473H11.0097V12.3637H3.33922V10.2473ZM20.1645 16.1634C19.0755 16.1634 18.1404 15.9243 17.3591 15.4461C16.5826 14.9679 15.9836 14.3074 15.5622 13.4646C15.1456 12.617 14.9372 11.6417 14.9372 10.5384C14.9372 9.43049 15.1503 8.45275 15.5764 7.60521C16.0026 6.75293 16.6039 6.09006 17.3804 5.61657C18.1617 5.13835 19.085 4.89924 20.1503 4.89924C21.0357 4.89924 21.8193 5.06259 22.5012 5.3893C23.1877 5.71127 23.7346 6.16818 24.1418 6.76004C24.549 7.34716 24.781 8.03371 24.8378 8.8197H22.3804C22.281 8.29413 22.0442 7.85615 21.6702 7.50578C21.3009 7.15066 20.8061 6.97311 20.1858 6.97311C19.6602 6.97311 19.1986 7.11515 18.8009 7.39924C18.4031 7.6786 18.093 8.08106 17.8705 8.60663C17.6527 9.1322 17.5438 9.76193 17.5438 10.4958C17.5438 11.2392 17.6527 11.8784 17.8705 12.4134C18.0883 12.9437 18.3937 13.3533 18.7867 13.6421C19.1844 13.9262 19.6508 14.0683 20.1858 14.0683C20.5646 14.0683 20.9031 13.9973 21.2014 13.8552C21.5045 13.7084 21.7578 13.4977 21.9614 13.2231C22.165 12.9485 22.3047 12.6147 22.3804 12.2217H24.8378C24.7762 12.9935 24.549 13.6777 24.156 14.2742C23.763 14.8661 23.228 15.3301 22.5509 15.6663C21.8738 15.9977 21.0783 16.1634 20.1645 16.1634ZM31.7075 16.1634C30.6185 16.1634 29.6833 15.9243 28.9021 15.4461C28.1256 14.9679 27.5266 14.3074 27.1052 13.4646C26.6885 12.617 26.4802 11.6417 26.4802 10.5384C26.4802 9.43049 26.6933 8.45275 27.1194 7.60521C27.5455 6.75293 28.1469 6.09006 28.9234 5.61657C29.7046 5.13835 30.6279 4.89924 31.6933 4.89924C32.5787 4.89924 33.3623 5.06259 34.0441 5.3893C34.7307 5.71127 35.2776 6.16818 35.6847 6.76004C36.0919 7.34716 36.324 8.03371 36.3808 8.8197H33.9234C33.824 8.29413 33.5872 7.85615 33.2132 7.50578C32.8438 7.15066 32.349 6.97311 31.7288 6.97311C31.2032 6.97311 30.7416 7.11515 30.3438 7.39924C29.9461 7.6786 29.636 8.08106 29.4134 8.60663C29.1956 9.1322 29.0867 9.76193 29.0867 10.4958C29.0867 11.2392 29.1956 11.8784 29.4134 12.4134C29.6312 12.9437 29.9366 13.3533 30.3296 13.6421C30.7274 13.9262 31.1937 14.0683 31.7288 14.0683C32.1076 14.0683 32.4461 13.9973 32.7444 13.8552C33.0474 13.7084 33.3008 13.4977 33.5044 13.2231C33.7079 12.9485 33.8476 12.6147 33.9234 12.2217H36.3808C36.3192 12.9935 36.0919 13.6777 35.699 14.2742C35.306 14.8661 34.7709 15.3301 34.0938 15.6663C33.4168 15.9977 32.6213 16.1634 31.7075 16.1634ZM45.445 11.3623V5.04129H48.0161V15.9504H45.5232V14.0115H45.4095C45.1633 14.6223 44.7585 15.1218 44.195 15.51C43.6363 15.8983 42.9474 16.0924 42.1283 16.0924C41.4133 16.0924 40.7812 15.9338 40.232 15.6166C39.6875 15.2946 39.2613 14.8282 38.9536 14.2174C38.6458 13.6019 38.4919 12.8585 38.4919 11.9873V5.04129H41.0629V11.5896C41.0629 12.2809 41.2523 12.8301 41.6311 13.2373C42.0099 13.6445 42.5071 13.8481 43.1226 13.8481C43.5014 13.8481 43.8683 13.7558 44.2235 13.5711C44.5786 13.3865 44.8698 13.1118 45.097 12.7473C45.329 12.3779 45.445 11.9163 45.445 11.3623ZM50.6599 15.9504V5.04129H53.2309V15.9504H50.6599ZM51.9525 3.49299C51.5453 3.49299 51.1949 3.35805 50.9014 3.08816C50.6078 2.81354 50.461 2.48447 50.461 2.10095C50.461 1.71269 50.6078 1.38362 50.9014 1.11373C51.1949 0.839109 51.5453 0.701798 51.9525 0.701798C52.3644 0.701798 52.7148 0.839109 53.0036 1.11373C53.2972 1.38362 53.444 1.71269 53.444 2.10095C53.444 2.48447 53.2972 2.81354 53.0036 3.08816C52.7148 3.35805 52.3644 3.49299 51.9525 3.49299ZM60.6333 16.1634C59.5442 16.1634 58.6091 15.9243 57.8279 15.4461C57.0513 14.9679 56.4524 14.3074 56.031 13.4646C55.6143 12.617 55.406 11.6417 55.406 10.5384C55.406 9.43049 55.6191 8.45275 56.0452 7.60521C56.4713 6.75293 57.0727 6.09006 57.8492 5.61657C58.6304 5.13835 59.5537 4.89924 60.6191 4.89924C61.5045 4.89924 62.2881 5.06259 62.9699 5.3893C63.6565 5.71127 64.2033 6.16818 64.6105 6.76004C65.0177 7.34716 65.2497 8.03371 65.3066 8.8197H62.8492C62.7497 8.29413 62.513 7.85615 62.1389 7.50578C61.7696 7.15066 61.2748 6.97311 60.6546 6.97311C60.129 6.97311 59.6673 7.11515 59.2696 7.39924C58.8719 7.6786 58.5618 8.08106 58.3392 8.60663C58.1214 9.1322 58.0125 9.76193 58.0125 10.4958C58.0125 11.2392 58.1214 11.8784 58.3392 12.4134C58.557 12.9437 58.8624 13.3533 59.2554 13.6421C59.6531 13.9262 60.1195 14.0683 60.6546 14.0683C61.0334 14.0683 61.3719 13.9973 61.6702 13.8552C61.9732 13.7084 62.2265 13.4977 62.4301 13.2231C62.6337 12.9485 62.7734 12.6147 62.8492 12.2217H65.3066C65.245 12.9935 65.0177 13.6777 64.6247 14.2742C64.2317 14.8661 63.6967 15.3301 63.0196 15.6663C62.3425 15.9977 61.5471 16.1634 60.6333 16.1634ZM69.7615 12.5271L69.7544 9.42339H70.1663L74.0867 5.04129H77.091L72.2686 10.4106H71.7359L69.7615 12.5271ZM67.4177 15.9504V1.40492H69.9887V15.9504H67.4177ZM74.2643 15.9504L70.7132 10.9859L72.4461 9.17481L77.3396 15.9504H74.2643Z" fill="#146EF6"/>
<path d="M85.7469 15.9504H82.9344L88.0551 1.40492H91.308L96.4358 15.9504H93.6233L89.7384 4.38788H89.6247L85.7469 15.9504ZM85.8392 10.2473H93.5097V12.3637H85.8392V10.2473ZM105.191 11.3623V5.04129H107.762V15.9504H105.269V14.0115H105.156C104.909 14.6223 104.505 15.1218 103.941 15.51C103.382 15.8983 102.694 16.0924 101.874 16.0924C101.159 16.0924 100.527 15.9338 99.9781 15.6166C99.4336 15.2946 99.0074 14.8282 98.6997 14.2174C98.3919 13.6019 98.238 12.8585 98.238 11.9873V5.04129H100.809V11.5896C100.809 12.2809 100.998 12.8301 101.377 13.2373C101.756 13.6445 102.253 13.8481 102.869 13.8481C103.247 13.8481 103.614 13.7558 103.97 13.5711C104.325 13.3865 104.616 13.1118 104.843 12.7473C105.075 12.3779 105.191 11.9163 105.191 11.3623ZM115.853 5.04129V7.02992H109.582V5.04129H115.853ZM111.13 2.42765H113.701V12.6691C113.701 13.0148 113.754 13.2799 113.858 13.4646C113.967 13.6445 114.109 13.7676 114.284 13.8339C114.459 13.9002 114.653 13.9333 114.866 13.9333C115.027 13.9333 115.174 13.9215 115.307 13.8978C115.444 13.8741 115.548 13.8528 115.619 13.8339L116.052 15.8438C115.915 15.8912 115.718 15.9433 115.463 16.0001C115.212 16.0569 114.904 16.0901 114.54 16.0995C113.896 16.1185 113.316 16.0214 112.799 15.8083C112.283 15.5905 111.874 15.2544 111.571 14.7998C111.272 14.3453 111.126 13.7771 111.13 13.0953V2.42765ZM122.645 16.1634C121.58 16.1634 120.656 15.9291 119.875 15.4603C119.094 14.9916 118.488 14.3358 118.057 13.493C117.631 12.6502 117.418 11.6653 117.418 10.5384C117.418 9.41155 117.631 8.42434 118.057 7.5768C118.488 6.72926 119.094 6.07112 119.875 5.60237C120.656 5.13362 121.58 4.89924 122.645 4.89924C123.71 4.89924 124.634 5.13362 125.415 5.60237C126.196 6.07112 126.8 6.72926 127.226 7.5768C127.657 8.42434 127.872 9.41155 127.872 10.5384C127.872 11.6653 127.657 12.6502 127.226 13.493C126.8 14.3358 126.196 14.9916 125.415 15.4603C124.634 15.9291 123.71 16.1634 122.645 16.1634ZM122.659 14.1038C123.237 14.1038 123.72 13.9452 124.108 13.6279C124.496 13.306 124.785 12.8751 124.975 12.3353C125.169 11.7955 125.266 11.1942 125.266 10.5313C125.266 9.86373 125.169 9.26004 124.975 8.72026C124.785 8.17576 124.496 7.74252 124.108 7.42055C123.72 7.09858 123.237 6.93759 122.659 6.93759C122.067 6.93759 121.575 7.09858 121.182 7.42055C120.794 7.74252 120.502 8.17576 120.308 8.72026C120.119 9.26004 120.024 9.86373 120.024 10.5313C120.024 11.1942 120.119 11.7955 120.308 12.3353C120.502 12.8751 120.794 13.306 121.182 13.6279C121.575 13.9452 122.067 14.1038 122.659 14.1038ZM130.054 15.9504V5.04129H132.512V6.89498H132.64C132.867 6.26998 133.243 5.78229 133.769 5.43191C134.294 5.0768 134.922 4.89924 135.651 4.89924C136.39 4.89924 137.012 5.07917 137.519 5.43901C138.03 5.79413 138.39 6.27945 138.598 6.89498H138.712C138.954 6.28892 139.361 5.80597 139.934 5.44612C140.511 5.08153 141.196 4.89924 141.986 4.89924C142.99 4.89924 143.809 5.21648 144.444 5.85095C145.078 6.48542 145.395 7.41108 145.395 8.62794V15.9504H142.817V9.02566C142.817 8.34858 142.637 7.85379 142.277 7.54129C141.918 7.22405 141.477 7.06543 140.956 7.06543C140.336 7.06543 139.851 7.25956 139.5 7.64782C139.155 8.03134 138.982 8.53087 138.982 9.1464V15.9504H136.461V8.91913C136.461 8.35568 136.29 7.90587 135.949 7.5697C135.613 7.23352 135.173 7.06543 134.628 7.06543C134.259 7.06543 133.923 7.16013 133.62 7.34953C133.317 7.53419 133.075 7.79697 132.895 8.13788C132.715 8.47405 132.625 8.86704 132.625 9.31686V15.9504H130.054ZM151.143 16.1705C150.452 16.1705 149.829 16.0474 149.275 15.8012C148.726 15.5503 148.29 15.181 147.968 14.6933C147.651 14.2056 147.492 13.6043 147.492 12.8893C147.492 12.2738 147.606 11.7648 147.833 11.3623C148.06 10.9598 148.371 10.6379 148.764 10.3964C149.157 10.1549 149.599 9.97263 150.092 9.84953C150.589 9.72169 151.103 9.62936 151.633 9.57254C152.272 9.50625 152.791 9.44706 153.188 9.39498C153.586 9.33816 153.875 9.25294 154.055 9.1393C154.239 9.02093 154.332 8.83864 154.332 8.59242V8.54981C154.332 8.01477 154.173 7.60047 153.856 7.30691C153.539 7.01335 153.082 6.86657 152.485 6.86657C151.855 6.86657 151.356 7.00388 150.987 7.2785C150.622 7.55312 150.376 7.87746 150.248 8.25151L147.847 7.91061C148.037 7.24773 148.349 6.69375 148.785 6.24867C149.22 5.79886 149.753 5.46269 150.383 5.24015C151.013 5.01288 151.709 4.89924 152.471 4.89924C152.997 4.89924 153.52 4.9608 154.041 5.0839C154.561 5.20701 155.037 5.41061 155.468 5.6947C155.899 5.97405 156.245 6.35521 156.505 6.83816C156.77 7.32112 156.903 7.92481 156.903 8.64924V15.9504H154.431V14.4518H154.346C154.19 14.7548 153.97 15.0389 153.685 15.3041C153.406 15.5645 153.053 15.7752 152.627 15.9362C152.206 16.0924 151.711 16.1705 151.143 16.1705ZM151.81 14.2813C152.327 14.2813 152.774 14.1795 153.153 13.9759C153.532 13.7676 153.823 13.493 154.026 13.1521C154.235 12.8112 154.339 12.4395 154.339 12.037V10.7515C154.258 10.8178 154.121 10.8794 153.927 10.9362C153.738 10.993 153.524 11.0427 153.288 11.0853C153.051 11.1279 152.817 11.1658 152.585 11.199C152.353 11.2321 152.151 11.2605 151.981 11.2842C151.597 11.3363 151.254 11.4215 150.951 11.5399C150.648 11.6582 150.409 11.824 150.234 12.037C150.059 12.2454 149.971 12.5152 149.971 12.8467C149.971 13.3202 150.144 13.6777 150.489 13.9191C150.835 14.1606 151.275 14.2813 151.81 14.2813ZM164.935 5.04129V7.02992H158.664V5.04129H164.935ZM160.212 2.42765H162.783V12.6691C162.783 13.0148 162.836 13.2799 162.94 13.4646C163.049 13.6445 163.191 13.7676 163.366 13.8339C163.541 13.9002 163.735 13.9333 163.948 13.9333C164.109 13.9333 164.256 13.9215 164.389 13.8978C164.526 13.8741 164.63 13.8528 164.701 13.8339L165.134 15.8438C164.997 15.8912 164.801 15.9433 164.545 16.0001C164.294 16.0569 163.986 16.0901 163.622 16.0995C162.978 16.1185 162.398 16.0214 161.881 15.8083C161.365 15.5905 160.956 15.2544 160.653 14.7998C160.354 14.3453 160.208 13.7771 160.212 13.0953V2.42765ZM167.086 15.9504V5.04129H169.657V15.9504H167.086ZM168.378 3.49299C167.971 3.49299 167.621 3.35805 167.327 3.08816C167.034 2.81354 166.887 2.48447 166.887 2.10095C166.887 1.71269 167.034 1.38362 167.327 1.11373C167.621 0.839109 167.971 0.701798 168.378 0.701798C168.79 0.701798 169.141 0.839109 169.429 1.11373C169.723 1.38362 169.87 1.71269 169.87 2.10095C169.87 2.48447 169.723 2.81354 169.429 3.08816C169.141 3.35805 168.79 3.49299 168.378 3.49299ZM177.059 16.1634C175.994 16.1634 175.07 15.9291 174.289 15.4603C173.508 14.9916 172.902 14.3358 172.471 13.493C172.045 12.6502 171.832 11.6653 171.832 10.5384C171.832 9.41155 172.045 8.42434 172.471 7.5768C172.902 6.72926 173.508 6.07112 174.289 5.60237C175.07 5.13362 175.994 4.89924 177.059 4.89924C178.124 4.89924 179.048 5.13362 179.829 5.60237C180.61 6.07112 181.214 6.72926 181.64 7.5768C182.071 8.42434 182.286 9.41155 182.286 10.5384C182.286 11.6653 182.071 12.6502 181.64 13.493C181.214 14.3358 180.61 14.9916 179.829 15.4603C179.048 15.9291 178.124 16.1634 177.059 16.1634ZM177.073 14.1038C177.651 14.1038 178.134 13.9452 178.522 13.6279C178.91 13.306 179.199 12.8751 179.389 12.3353C179.583 11.7955 179.68 11.1942 179.68 10.5313C179.68 9.86373 179.583 9.26004 179.389 8.72026C179.199 8.17576 178.91 7.74252 178.522 7.42055C178.134 7.09858 177.651 6.93759 177.073 6.93759C176.481 6.93759 175.989 7.09858 175.596 7.42055C175.208 7.74252 174.917 8.17576 174.722 8.72026C174.533 9.26004 174.438 9.86373 174.438 10.5313C174.438 11.1942 174.533 11.7955 174.722 12.3353C174.917 12.8751 175.208 13.306 175.596 13.6279C175.989 13.9452 176.481 14.1038 177.073 14.1038ZM187.04 9.55833V15.9504H184.468V5.04129H186.926V6.89498H187.054C187.305 6.28418 187.705 5.79886 188.254 5.43901C188.808 5.07917 189.492 4.89924 190.307 4.89924C191.059 4.89924 191.715 5.06023 192.274 5.3822C192.837 5.70417 193.273 6.17055 193.581 6.78134C193.893 7.39214 194.047 8.13314 194.042 9.00436V15.9504H191.471V9.40208C191.471 8.67292 191.282 8.10237 190.903 7.69043C190.529 7.2785 190.011 7.07254 189.348 7.07254C188.898 7.07254 188.498 7.17197 188.147 7.37083C187.802 7.56496 187.53 7.84669 187.331 8.216C187.137 8.58532 187.04 9.03276 187.04 9.55833Z" fill="#374458"/>
</svg>
