<svg width="33" height="32" viewBox="0 0 33 32" fill="none" xmlns="http://www.w3.org/2000/svg">
<path d="M25.8481 4.21751C25.819 4.15242 25.7716 4.09721 25.7117 4.05859C25.6517 4.01997 25.5819 3.99962 25.5106 4.00001H15.0631C15.0004 4.00011 14.9386 4.01596 14.8836 4.04609C14.8286 4.07623 14.782 4.1197 14.7481 4.17251L6.7156 16.9225C6.67693 16.978 6.65434 17.0431 6.65031 17.1107C6.64628 17.1782 6.66098 17.2455 6.69278 17.3053C6.72458 17.365 6.77224 17.4148 6.83053 17.4491C6.88881 17.4835 6.95545 17.5011 7.0231 17.5H12.7756L7.6981 27.4375C7.66895 27.4966 7.65525 27.5621 7.65828 27.6279C7.6613 27.6938 7.68096 27.7578 7.71541 27.8139C7.74987 27.8701 7.79799 27.9166 7.85529 27.9492C7.9126 27.9817 7.97721 27.9992 8.0431 28H10.2931C10.3452 28.0003 10.3967 27.9899 10.4445 27.9692C10.4923 27.9485 10.5352 27.9182 10.5706 27.88L23.7481 13.6375C23.8004 13.5842 23.8356 13.5164 23.8492 13.443C23.8627 13.3695 23.8541 13.2937 23.8243 13.2252C23.7944 13.1567 23.7448 13.0987 23.6818 13.0586C23.6188 13.0184 23.5453 12.998 23.4706 13H18.4156L25.7881 4.61501C25.8356 4.56174 25.8666 4.49578 25.8773 4.42519C25.8879 4.3546 25.8778 4.28243 25.8481 4.21751Z" fill="#303C60"/>
</svg>
