<svg width="32" height="32" viewBox="0 0 32 32" fill="none" xmlns="http://www.w3.org/2000/svg">
<path d="M9.13273 6.9564L7.59455 5.40731C4 8.97785 4 11.5655 4 14.9091H5.09091L6.18182 14.8404C6.18182 11.6462 6.18182 9.88658 9.13273 6.9564ZM24.4044 5.40731L22.8684 6.9564C25.8182 9.88658 25.8182 11.6462 25.8182 14.9091L28 14.8404C28 11.5655 28 8.97785 24.4044 5.40731ZM16 26.9091C16.6756 26.91 17.3347 26.7003 17.8856 26.3093C18.4366 25.9183 18.852 25.3653 19.0742 24.7273H12.9258C13.148 25.3653 13.5634 25.9183 14.1144 26.3093C14.6653 26.7003 15.3244 26.91 16 26.9091ZM23.6364 18.8211V13.8182C23.6364 10.3088 21.2527 7.3524 18.0236 6.46331C17.704 5.65821 16.9229 5.09094 16 5.09094C15.0771 5.09094 14.296 5.65821 13.9764 6.46331C10.7462 7.3524 8.36364 10.3088 8.36364 13.8182V18.8211L6.50145 20.6833C6.39995 20.7844 6.31946 20.9046 6.2646 21.037C6.20974 21.1694 6.18161 21.3113 6.18182 21.4546V22.5455C6.18182 22.8348 6.29675 23.1123 6.50134 23.3169C6.70592 23.5215 6.9834 23.6364 7.27273 23.6364H24.7273C25.0166 23.6364 25.2941 23.5215 25.4987 23.3169C25.7032 23.1123 25.8182 22.8348 25.8182 22.5455V21.4546C25.8184 21.3113 25.7903 21.1694 25.7354 21.037C25.6805 20.9046 25.6 20.7844 25.4985 20.6833L23.6364 18.8211Z" fill="#146EF6"/>
</svg>
