<svg width="30" height="30" viewBox="0 0 30 30" fill="none" xmlns="http://www.w3.org/2000/svg">
<g opacity="0.8" clip-path="url(#clip0_8180_647)">
<path d="M8.2997 17.6495L7.3497 21.7495C7.31693 21.8994 7.31805 22.0547 7.35299 22.2041C7.38793 22.3535 7.45579 22.4932 7.55163 22.613C7.64747 22.7328 7.76886 22.8296 7.90694 22.8965C8.04501 22.9634 8.19629 22.9986 8.3497 22.9995C8.42119 23.0067 8.49322 23.0067 8.5647 22.9995L12.6897 22.0495L20.6097 14.1595L16.1897 9.74951L8.2997 17.6495Z" fill="#FF9900"/>
<path d="M23.0997 10.2095L20.1497 7.25955C19.9557 7.06658 19.6933 6.95825 19.4197 6.95825C19.1461 6.95825 18.8836 7.06658 18.6897 7.25955L17.0497 8.89955L21.4647 13.3145L23.1047 11.6745C23.2007 11.5781 23.2767 11.4636 23.3284 11.3378C23.3801 11.2119 23.4064 11.0771 23.406 10.941C23.4055 10.8049 23.3782 10.6703 23.3257 10.5448C23.2731 10.4193 23.1963 10.3053 23.0997 10.2095Z" fill="#FF9900"/>
</g>
<defs>
<clipPath id="clip0_8180_647">
<rect width="18" height="18" fill="white" transform="translate(6.1897 6.04956)"/>
</clipPath>
</defs>
</svg>
