<svg width="30" height="31" viewBox="0 0 30 31" fill="none" xmlns="http://www.w3.org/2000/svg">
<g opacity="0.8">
<path d="M17.3697 23.4324L24.2447 16.5574C24.3725 16.4298 24.4739 16.2783 24.5431 16.1114C24.6123 15.9446 24.6479 15.7658 24.6479 15.5852C24.6479 15.4047 24.6123 15.2258 24.5431 15.059C24.4739 14.8922 24.3725 14.7407 24.2447 14.6131L17.3697 7.73812C17.242 7.61046 17.0905 7.50919 16.9237 7.4401C16.7569 7.37101 16.5781 7.33545 16.3976 7.33545C16.217 7.33545 16.0383 7.37101 15.8715 7.4401C15.7047 7.50919 15.5531 7.61046 15.4255 7.73812C15.1676 7.99594 15.0228 8.34562 15.0228 8.71024C15.0228 9.07486 15.1676 9.42454 15.4255 9.68237L19.9533 14.2102H6.77258C6.40791 14.2102 6.05817 14.3551 5.80031 14.613C5.54245 14.8708 5.39758 15.2206 5.39758 15.5852C5.39758 15.9499 5.54245 16.2997 5.80031 16.5575C6.05817 16.8154 6.40791 16.9602 6.77258 16.9602H19.9533L15.4255 21.4881C15.2973 21.6155 15.1956 21.767 15.1263 21.9338C15.0569 22.1007 15.0212 22.2796 15.0212 22.4602C15.0212 22.6409 15.0569 22.8198 15.1263 22.9867C15.1956 23.1535 15.2973 23.305 15.4255 23.4324C15.553 23.5602 15.7046 23.6616 15.8714 23.7307C16.0382 23.7999 16.217 23.8355 16.3976 23.8355C16.5782 23.8355 16.757 23.7999 16.9238 23.7307C17.0906 23.6616 17.2421 23.5602 17.3697 23.4324Z" fill="#146EF6"/>
</g>
</svg>
