<svg width="32" height="32" viewBox="0 0 32 32" fill="none" xmlns="http://www.w3.org/2000/svg">
<path d="M25.5831 7C26.2576 7 26.829 7.2193 27.2974 7.65789C27.7658 8.09649 28 8.63158 28 9.26316V22.7368C28 23.3684 27.7658 23.9035 27.2974 24.3421C26.829 24.7807 26.2576 25 25.5831 25H6.41686C5.74239 25 5.17096 24.7807 4.70258 24.3421C4.23419 23.9035 4 23.3684 4 22.7368V9.26316C4 8.63158 4.23419 8.09649 4.70258 7.65789C5.17096 7.2193 5.74239 7 6.41686 7H25.5831ZM25.5831 11.5263V9.26316L15.9719 14.8947L6.41686 9.26316V11.5263L15.9719 17.1053L25.5831 11.5263Z" fill="#EE524F"/>
</svg>
