<svg width="25" height="23" viewBox="0 0 25 23" fill="none" xmlns="http://www.w3.org/2000/svg">
<path d="M0.824341 3C0.824341 2.20435 1.14041 1.44129 1.70302 0.87868C2.26563 0.316071 3.02869 0 3.82434 0L21.8243 0C22.62 0 23.3831 0.316071 23.9457 0.87868C24.5083 1.44129 24.8243 2.20435 24.8243 3V15C24.8243 15.7957 24.5083 16.5587 23.9457 17.1213C23.3831 17.6839 22.62 18 21.8243 18H7.44534C7.04755 18.0001 6.66608 18.1582 6.38484 18.4395L2.10534 22.719C2.00054 22.8241 1.86692 22.8957 1.72139 22.9248C1.57587 22.9539 1.42499 22.9392 1.28784 22.8825C1.15069 22.8258 1.03344 22.7297 0.950937 22.6063C0.86843 22.483 0.824372 22.3379 0.824341 22.1895V3ZM8.32434 9C8.32434 8.60218 8.16631 8.22065 7.885 7.93934C7.6037 7.65804 7.22217 7.5 6.82434 7.5C6.42652 7.5 6.04499 7.65804 5.76368 7.93934C5.48238 8.22065 5.32434 8.60218 5.32434 9C5.32434 9.39783 5.48238 9.77936 5.76368 10.0607C6.04499 10.342 6.42652 10.5 6.82434 10.5C7.22217 10.5 7.6037 10.342 7.885 10.0607C8.16631 9.77936 8.32434 9.39783 8.32434 9ZM14.3243 9C14.3243 8.60218 14.1663 8.22065 13.885 7.93934C13.6037 7.65804 13.2222 7.5 12.8243 7.5C12.4265 7.5 12.045 7.65804 11.7637 7.93934C11.4824 8.22065 11.3243 8.60218 11.3243 9C11.3243 9.39783 11.4824 9.77936 11.7637 10.0607C12.045 10.342 12.4265 10.5 12.8243 10.5C13.2222 10.5 13.6037 10.342 13.885 10.0607C14.1663 9.77936 14.3243 9.39783 14.3243 9ZM18.8243 10.5C19.2222 10.5 19.6037 10.342 19.885 10.0607C20.1663 9.77936 20.3243 9.39783 20.3243 9C20.3243 8.60218 20.1663 8.22065 19.885 7.93934C19.6037 7.65804 19.2222 7.5 18.8243 7.5C18.4265 7.5 18.045 7.65804 17.7637 7.93934C17.4824 8.22065 17.3243 8.60218 17.3243 9C17.3243 9.39783 17.4824 9.77936 17.7637 10.0607C18.045 10.342 18.4265 10.5 18.8243 10.5Z" fill="#384F82"/>
</svg>
