<svg width="25" height="25" viewBox="0 0 25 25" fill="none" xmlns="http://www.w3.org/2000/svg">
<path d="M20.4129 8.26419C21.2251 8.26421 22.0181 8.01699 22.6863 7.55538C23.3546 7.09378 23.8666 6.43968 24.1541 5.68005C24.4415 4.92043 24.491 4.09129 24.2958 3.30288C24.1006 2.51448 23.67 1.80418 23.0613 1.26643C22.4526 0.728686 21.6947 0.388981 20.8882 0.292491C20.0818 0.196001 19.265 0.347298 18.5467 0.726262C17.8283 1.10523 17.2423 1.6939 16.8666 2.414C16.4909 3.1341 16.3434 3.9515 16.4435 4.75751L7.19018 9.38419C6.62516 8.83933 5.91231 8.47274 5.14043 8.33011C4.36856 8.18748 3.57178 8.2751 2.84935 8.58206C2.12692 8.88901 1.51076 9.40174 1.07764 10.0564C0.644519 10.711 0.413574 11.4786 0.413574 12.2635C0.413574 13.0485 0.644519 13.8161 1.07764 14.4707C1.51076 15.1253 2.12692 15.638 2.84935 15.945C3.57178 16.252 4.36856 16.3396 5.14043 16.197C5.91231 16.0543 6.62516 15.6877 7.19018 15.1429L16.4435 19.7696C16.3269 20.7059 16.545 21.6533 17.0592 22.4444C17.5735 23.2355 18.3509 23.8193 19.254 24.0926C20.1571 24.366 21.1278 24.3113 21.9945 23.9382C22.8611 23.5651 23.568 22.8977 23.9902 22.0538C24.4123 21.21 24.5226 20.244 24.3015 19.3267C24.0804 18.4095 23.5421 17.5999 22.7818 17.0411C22.0215 16.4823 21.0881 16.2102 20.1467 16.273C19.2052 16.3358 18.3162 16.7294 17.6369 17.3842L8.38352 12.7575C8.42383 12.4299 8.42383 12.0985 8.38352 11.7709L17.6369 7.14418C18.3542 7.83752 19.3329 8.26419 20.4129 8.26419Z" fill="#137CED"/>
</svg>
