<svg width="33" height="32" viewBox="0 0 33 32" fill="none" xmlns="http://www.w3.org/2000/svg">
<path d="M27.5449 25.4286C27.6908 25.4286 27.8105 25.4688 27.9043 25.5491C27.998 25.6295 28.0449 25.7321 28.0449 25.8571V27.5714C28.0449 27.6964 27.998 27.7991 27.9043 27.8795C27.8105 27.9598 27.6908 28 27.5449 28H4.54492C4.39909 28 4.2793 27.9598 4.18555 27.8795C4.0918 27.7991 4.04492 27.6964 4.04492 27.5714V25.8571C4.04492 25.7321 4.0918 25.6295 4.18555 25.5491C4.2793 25.4688 4.39909 25.4286 4.54492 25.4286H27.5449ZM6.07617 24.5714C6.10742 24.0804 6.19076 23.6027 6.32617 23.1384C6.46159 22.6741 6.61784 22.25 6.79492 21.8661C6.97201 21.4821 7.21159 21.0938 7.51367 20.7009C7.81576 20.308 8.0944 19.9688 8.34961 19.683C8.60482 19.3973 8.94076 19.0871 9.35742 18.7522C9.77409 18.4174 10.1178 18.1496 10.3887 17.9487C10.6595 17.7478 11.0267 17.5022 11.4902 17.2121C11.9538 16.9219 12.3001 16.7098 12.5293 16.5759C12.7585 16.442 13.097 16.25 13.5449 16C13.097 15.75 12.7585 15.558 12.5293 15.4241C12.3001 15.2902 11.9538 15.0781 11.4902 14.7879C11.0267 14.4978 10.6595 14.2522 10.3887 14.0513C10.1178 13.8504 9.77409 13.5826 9.35742 13.2478C8.94076 12.9129 8.60482 12.6027 8.34961 12.317C8.0944 12.0313 7.81576 11.692 7.51367 11.2991C7.21159 10.9063 6.97201 10.5179 6.79492 10.1339C6.61784 9.75 6.46159 9.32589 6.32617 8.86161C6.19076 8.39732 6.10742 7.91964 6.07617 7.42857H26.0137C25.9824 7.91964 25.8991 8.39732 25.7637 8.86161C25.6283 9.32589 25.472 9.75 25.2949 10.1339C25.1178 10.5179 24.8783 10.9063 24.5762 11.2991C24.2741 11.692 23.9954 12.0313 23.7402 12.317C23.485 12.6027 23.1491 12.9129 22.7324 13.2478C22.3158 13.5826 21.972 13.8504 21.7012 14.0513C21.4303 14.2522 21.0632 14.4978 20.5996 14.7879C20.1361 15.0781 19.7897 15.2902 19.5605 15.4241C19.3314 15.558 18.9928 15.75 18.5449 16C18.9928 16.25 19.3314 16.442 19.5605 16.5759C19.7897 16.7098 20.1361 16.9219 20.5996 17.2121C21.0632 17.5022 21.4303 17.7478 21.7012 17.9487C21.972 18.1496 22.3158 18.4174 22.7324 18.7522C23.1491 19.0871 23.485 19.3973 23.7402 19.683C23.9954 19.9688 24.2741 20.308 24.5762 20.7009C24.8783 21.0938 25.1178 21.4821 25.2949 21.8661C25.472 22.25 25.6283 22.6741 25.7637 23.1384C25.8991 23.6027 25.9824 24.0804 26.0137 24.5714H6.07617ZM27.5449 4C27.6908 4 27.8105 4.04018 27.9043 4.12054C27.998 4.20089 28.0449 4.30357 28.0449 4.42857V6.14286C28.0449 6.26786 27.998 6.37054 27.9043 6.45089C27.8105 6.53125 27.6908 6.57143 27.5449 6.57143H4.54492C4.39909 6.57143 4.2793 6.53125 4.18555 6.45089C4.0918 6.37054 4.04492 6.26786 4.04492 6.14286V4.42857C4.04492 4.30357 4.0918 4.20089 4.18555 4.12054C4.2793 4.04018 4.39909 4 4.54492 4H27.5449Z" fill="#01897A"/>
</svg>
