<svg width="19" height="18" viewBox="0 0 19 18" fill="none" xmlns="http://www.w3.org/2000/svg">
<g id="pencil-solid" opacity="0.8">
<path id="Vector" d="M2.61318 11.6L1.66318 15.7C1.63041 15.8498 1.63153 16.0051 1.66647 16.1545C1.7014 16.3039 1.76927 16.4436 1.86511 16.5634C1.96095 16.6832 2.08234 16.7801 2.22042 16.847C2.35849 16.9138 2.50976 16.949 2.66318 16.95C2.73466 16.9572 2.80669 16.9572 2.87818 16.95L7.00318 16L14.9232 8.10995L10.5032 3.69995L2.61318 11.6Z" fill="#FF9900"/>
<path id="Vector_2" d="M17.4132 4.15998L14.4632 1.20999C14.2692 1.01702 14.0068 0.908691 13.7332 0.908691C13.4596 0.908691 13.1971 1.01702 13.0032 1.20999L11.3632 2.84998L15.7782 7.26499L17.4182 5.62499C17.5141 5.52852 17.5901 5.41409 17.6418 5.28822C17.6935 5.16235 17.7199 5.02752 17.7195 4.89145C17.719 4.75538 17.6917 4.62073 17.6391 4.49522C17.5866 4.36971 17.5098 4.25579 17.4132 4.15998Z" fill="#FF9900"/>
</g>
</svg>
