<svg width="33" height="33" viewBox="0 0 33 33" fill="none" xmlns="http://www.w3.org/2000/svg">
<path d="M25.6275 4.92899C25.5984 4.86391 25.551 4.8087 25.4911 4.77008C25.4312 4.73146 25.3613 4.7111 25.29 4.71149H14.8425C14.7798 4.7116 14.7181 4.72744 14.663 4.75758C14.608 4.78772 14.5614 4.83118 14.5275 4.88399L6.49502 17.634C6.45635 17.6895 6.43376 17.7546 6.42973 17.8222C6.4257 17.8897 6.4404 17.957 6.4722 18.0168C6.50399 18.0765 6.55166 18.1263 6.60995 18.1606C6.66823 18.195 6.73487 18.2126 6.80252 18.2115H12.555L7.47752 28.149C7.44837 28.2081 7.43467 28.2736 7.43769 28.3394C7.44072 28.4053 7.46038 28.4692 7.49483 28.5254C7.52928 28.5816 7.57741 28.6281 7.63471 28.6607C7.69202 28.6932 7.75663 28.7107 7.82252 28.7115H10.0725C10.1246 28.7118 10.1761 28.7013 10.2239 28.6807C10.2717 28.66 10.3146 28.6296 10.35 28.5915L23.5275 14.349C23.5798 14.2957 23.615 14.2279 23.6286 14.1545C23.6422 14.081 23.6335 14.0052 23.6037 13.9367C23.5739 13.8682 23.5243 13.8102 23.4613 13.77C23.3982 13.7299 23.3247 13.7095 23.25 13.7115H18.195L25.5675 5.32649C25.615 5.27322 25.646 5.20726 25.6567 5.13667C25.6673 5.06608 25.6572 4.99392 25.6275 4.92899Z" fill="#303C60"/>
</svg>
