<svg width="33" height="33" viewBox="0 0 33 33" fill="none" xmlns="http://www.w3.org/2000/svg">
<path d="M23.6047 21.8508C20.4579 20.7044 19.4519 19.7367 19.4519 17.6648C19.4519 16.4214 20.483 15.6156 20.8345 14.5499C21.186 13.4843 21.3893 12.2226 21.5583 11.3048C21.7273 10.387 21.7945 10.032 21.8864 9.05417C21.9988 7.83375 21.1818 4.68311 16.8132 4.68311C12.446 4.68311 11.6264 7.83375 11.7413 9.05417C11.8332 10.032 11.9008 10.3871 12.0694 11.3048C12.2381 12.2226 12.4394 13.4842 12.7907 14.5499C13.1419 15.6156 14.1745 16.4214 14.1745 17.6648C14.1745 19.7367 13.1685 20.7044 10.0217 21.8508C6.86345 22.9997 4.81323 24.1327 4.81323 24.9331V28.6831H28.8132V24.9331C28.8132 24.134 26.7618 23.001 23.6047 21.8508Z" fill="#1C898F"/>
</svg>
