<svg width="25" height="25" viewBox="0 0 25 25" fill="none" xmlns="http://www.w3.org/2000/svg">
<path d="M12.5908 0.794756C6.7815 0.79965 1.44101 5.64035 0.892932 11.4308C0.304804 16.3626 3.08034 21.5175 7.61041 23.6123C11.8174 25.6685 17.2171 25.0178 20.7063 21.8517C24.2564 18.7798 25.8076 13.5435 24.2482 9.0763C22.7652 4.51873 18.3887 1.02958 13.5686 0.818404C13.2431 0.797119 12.9168 0.793134 12.5908 0.794756ZM12.8287 4.55519C17.1069 4.43075 21.0291 8.20406 21.0793 12.484C21.2644 16.3994 18.3228 20.2442 14.4209 20.9007C10.6452 21.657 6.45749 19.4749 5.13589 15.8093C3.71311 12.1844 5.16466 7.60034 8.62781 5.69779C9.89404 4.95431 11.36 4.55336 12.8287 4.55519ZM12.8334 6.70255C8.87897 6.55241 5.70061 10.8727 7.00787 14.6025C8.0338 18.4222 13.0985 20.1887 16.2766 17.8333C19.6238 15.7243 19.8136 10.3642 16.6239 8.02379C15.557 7.1727 14.198 6.69917 12.8334 6.70255Z" fill="#DD422D"/>
</svg>
