<svg width="25" height="25" viewBox="0 0 25 25" fill="none" xmlns="http://www.w3.org/2000/svg">
<path d="M20.7664 9.81641C20.7664 9.52474 20.6726 9.28516 20.4851 9.09766L19.0632 7.69141C18.8653 7.49349 18.6309 7.39453 18.3601 7.39453C18.0893 7.39453 17.8549 7.49349 17.657 7.69141L11.282 14.0508L7.75073 10.5195C7.55282 10.3216 7.31844 10.2227 7.04761 10.2227C6.77677 10.2227 6.5424 10.3216 6.34448 10.5195L4.92261 11.9258C4.73511 12.1133 4.64136 12.3529 4.64136 12.6445C4.64136 12.9258 4.73511 13.1602 4.92261 13.3477L10.5789 19.0039C10.7768 19.2018 11.0111 19.3008 11.282 19.3008C11.5632 19.3008 11.8028 19.2018 12.0007 19.0039L20.4851 10.5195C20.6726 10.332 20.7664 10.0977 20.7664 9.81641ZM24.7039 12.3477C24.7039 14.5247 24.1674 16.5326 23.0945 18.3711C22.0216 20.2096 20.5658 21.6654 18.7273 22.7383C16.8888 23.8112 14.8809 24.3477 12.7039 24.3477C10.5268 24.3477 8.51896 23.8112 6.68042 22.7383C4.84188 21.6654 3.38615 20.2096 2.31323 18.3711C1.24032 16.5326 0.703857 14.5247 0.703857 12.3477C0.703857 10.1706 1.24032 8.16276 2.31323 6.32422C3.38615 4.48568 4.84188 3.02995 6.68042 1.95703C8.51896 0.884115 10.5268 0.347656 12.7039 0.347656C14.8809 0.347656 16.8888 0.884115 18.7273 1.95703C20.5658 3.02995 22.0216 4.48568 23.0945 6.32422C24.1674 8.16276 24.7039 10.1706 24.7039 12.3477Z" fill="#0A7942"/>
</svg>
